<svg version="1.1" xmlns="http://www.w3.org/2000/svg" xmlns:xlink="http://www.w3.org/1999/xlink" width="41.11786" height="40.06662" viewBox="0,0,41.11786,40.06662"><g transform="translate(-219.44107,-160.65042)"><g data-paper-data="{&quot;isPaintingLayer&quot;:true}" fill-rule="nonzero" stroke="none" stroke-linecap="butt" stroke-linejoin="miter" stroke-miterlimit="10" stroke-dasharray="" stroke-dashoffset="0" style="mix-blend-mode: normal"><path d="M219.44107,199.34958v-38.69916h41.11786v38.69916z" fill="#000000" stroke-width="0"/><path d="M239.79167,186.88095c-0.79205,4.25442 -5.15811,1.6978 -7.93526,3.11365c-0.885,0.45119 -3.25866,3.67731 -2.66695,4.73187c2.78939,4.97136 12.72981,-5.71738 14.33208,0.15758c0.54851,2.01119 -2.7752,3.73668 -4.10221,4.29476c-3.29862,1.38725 -10.73628,2.81311 -13.52924,-0.44534c-5.30739,-6.19195 1.82087,-12.89529 7.67941,-14.02024c0.16932,-0.03251 -3.6695,-2.44318 -3.77868,-2.49698c-2.28127,-1.12425 -7.09961,1.31032 -8.19655,-0.60932c-0.73685,-0.43488 -1.23117,-1.23698 -1.23117,-2.15454c0,-1.38071 1.11929,-2.5 2.5,-2.5c0.22504,0 0.44313,0.02973 0.65057,0.08549c6.19598,-1.94313 17.42779,3.6671 16.278,9.84308z" fill="#ffffff" stroke-width="0.5"/></g></g></svg>