<svg version="1.1" xmlns="http://www.w3.org/2000/svg" xmlns:xlink="http://www.w3.org/1999/xlink" width="41.22917" height="41.55871" viewBox="0,0,41.22917,41.55871"><g transform="translate(-219.44107,-160.65042)"><g data-paper-data="{&quot;isPaintingLayer&quot;:true}" fill-rule="nonzero" stroke="none" stroke-linecap="butt" stroke-linejoin="miter" stroke-miterlimit="10" stroke-dasharray="" stroke-dashoffset="0" style="mix-blend-mode: normal"><path d="M219.44107,199.34958v-38.69916h41.11786v38.69916z" fill="#000000" stroke-width="0"/><path d="M247.93452,191.33157c-0.01835,2.17066 -1.12078,3.99221 0.1459,5.29153c1.13057,1.1597 6.7801,1.03831 7.42553,-1.04661c0.83975,-2.71261 -3.44076,-1.02706 -3.64286,-1.05269c-1.85885,-0.23568 -3.43722,-2.96383 -2.09321,-4.61803c2.30482,-2.83676 7.33672,-0.66005 9.63765,1.40837c2.53462,2.27849 0.83756,7.41997 -1.44341,9.21836c-2.77511,2.188 -8.53475,1.98054 -11.77961,0.82166c-7.70755,-2.7527 -2.49156,-18.12779 2.62509,-21.38384c1.06932,-0.68048 6.2155,-3.4674 7.00617,-1.09538c0.51128,0.45776 0.83303,1.12288 0.83303,1.86315c0,1.38071 -1.11929,2.5 -2.5,2.5c-0.0767,0 -0.15259,-0.00345 -0.22753,-0.01022c-2.76642,1.87942 -5.94596,3.27939 -5.98675,8.10369z" fill="#ffffff" stroke-width="0.5"/></g></g></svg>