<svg version="1.1" xmlns="http://www.w3.org/2000/svg" xmlns:xlink="http://www.w3.org/1999/xlink" width="41.11786" height="38.69916" viewBox="0,0,41.11786,38.69916"><g transform="translate(-219.44107,-160.65042)"><g data-paper-data="{&quot;isPaintingLayer&quot;:true}" fill-rule="nonzero" stroke="none" stroke-linecap="butt" stroke-linejoin="miter" stroke-miterlimit="10" stroke-dasharray="" stroke-dashoffset="0" style="mix-blend-mode: normal"><path d="M219.44107,199.34958v-38.69916h41.11786v38.69916z" fill="#000000" stroke-width="0"/><path d="M252.14881,172.95238c1.65775,-0.03084 3.73744,-0.80282 4.96429,0.3125c2.982,2.71091 -2.41122,13.22648 -4.36511,17.14213c-0.81982,1.64296 -1.55597,5.50492 -4.57436,3.99572c-3.48176,-1.74088 1.70334,-9.97824 2.6695,-12.35775c0.53867,-1.32665 1.99264,-2.729 1.43622,-4.0483c-0.16536,-0.39209 -0.82287,0.21829 -1.23849,0.30962c-0.10924,0.02401 -0.21954,0.04351 -0.33026,0.05935c-2.27733,0.32585 -4.49042,0.66108 -6.68449,1.3003c-0.14372,0.07567 -0.2957,0.13775 -0.45425,0.18453c-0.2247,0.06631 -0.46258,0.10189 -0.70877,0.10189c-1.38071,0 -2.5,-1.11929 -2.5,-2.5c0,-1.30928 1.00647,-2.38349 2.28793,-2.49113c2.75013,-1.53158 7.1628,-1.96543 9.49779,-2.00887z" fill="#ffffff" stroke-width="0.5"/></g></g></svg>