<svg version="1.1" xmlns="http://www.w3.org/2000/svg" xmlns:xlink="http://www.w3.org/1999/xlink" width="41.11786" height="38.69916" viewBox="0,0,41.11786,38.69916"><g transform="translate(-219.44107,-160.65042)"><g data-paper-data="{&quot;isPaintingLayer&quot;:true}" fill-rule="nonzero" stroke="none" stroke-linecap="butt" stroke-linejoin="miter" stroke-miterlimit="10" stroke-dasharray="" stroke-dashoffset="0" style="mix-blend-mode: normal"><path d="M219.44107,199.34958v-38.69916h41.11786v38.69916z" fill="#000000" stroke-width="0"/><path d="M230.44621,186.89783l0.03296,0.01883l0.01789,0.07157c0.188,0.3511 0.29461,0.75232 0.29461,1.17843v0.74865l0.25075,2.88362l0.10561,0.31682l0.22103,0.36838l0.11908,0.15877l0.60396,0.4314l0.4569,0.27414l0.16895,0.06758l0.41863,-0.18606l1.29743,-0.77846l0.05697,-0.01734l0.04402,-0.04011l1.72846,-0.93071l1.30884,-0.91619l0.10902,-0.04175l0.08429,-0.08078l0.16892,-0.09653l0,-0.8253l-0.96282,-6.18954l-1.26832,-6.4825l-0.78687,-3.40978l-0.94192,-1.98849l-0.58755,-0.50361l-2.01075,2.90441l-2.63238,4.15638l-0.80941,1.34592l0,0.48948l0.54003,3.37519l-0.00023,0.00264l0.00103,0.00243l0.39943,2.5297c0.66789,0.15958 1.2317,0.58718 1.57142,1.1628zM222.96592,180.41879l0.01732,-0.20011l-0.04872,-0.19486v-1.42857l0.0244,-0.09758l-0.03788,-0.07576l0.1894,-0.53033l0.13658,-0.54632l0.07354,-0.04202l0.03383,-0.09473l0.25342,-0.38013l0.86616,-1.44029l0.02104,-0.021l0.00934,-0.02822l2.67526,-4.2241l0.03803,-0.03624l0.01853,-0.04916l2.57143,-3.71429l0.18692,-0.16403l0.03053,-0.13611l0.39986,-0.24158l0.35114,-0.30814l0.13897,0.01204l0.21285,-0.1286l1.85714,-0.57143l0.37292,-0.01998l0.3623,-0.09057h0.28571l0.18401,0.046l0.08169,-0.00438l0.03607,0.03382l0.0196,0.0049l0.15317,-0.0547l0.37199,0.18599l0.40348,0.10087l0.0807,0.14122l0.29628,0.14814l1.80297,1.5454l0.01187,0.00091l0.02565,0.03125l0.15951,0.13672l0.30165,0.42506l0.33071,0.40287l0.08993,0.18986l0.0234,0.03297l-0.00224,0.01169l1.17462,2.47976l0.05325,0.26623l0.12339,0.24184l0.85714,3.71429l-0.00078,0.04309l0.01829,0.03903l1.28571,6.57143l-0.00258,0.04981l0.01939,0.04595l1,6.42857l-0.0177,0.19465l0.0474,0.18962v1.57143l-0.07464,0.29857v0.30776l-0.14286,0.57143l-0.12956,0.24293l-0.05973,0.26876l-0.28571,0.57143l-0.06546,0.07637v0.0847l-0.40658,0.38964l-0.36649,0.42757l-0.08457,0.0047l-0.07262,0.0696l-0.90054,0.51459l-1.33472,0.93431l-0.13865,0.0531l-0.10975,0.1l-1.80598,0.97245l-1.37874,0.82725l-0.14854,0.04521l-0.12235,0.09559l-1.0455,0.46467l-0.00556,0.00973l-0.03735,0.00934l-0.19731,0.08769l-0.51154,0.08952l-0.50381,0.12595h-0.21592l-0.03792,0.00664l-0.00904,-0.00664h-0.1657l-0.38988,-0.09747l-0.40069,-0.03082l-0.42857,-0.14286l-0.06342,-0.04036l-0.07449,-0.01016l-0.71429,-0.28571l-0.1641,-0.11852l-0.19366,-0.05894l-0.71429,-0.42857l-0.07205,-0.07205l-0.0948,-0.03735l-1,-0.71429l-0.24895,-0.29225l-0.29795,-0.24209l-0.42857,-0.57143l-0.05093,-0.12096l-0.0928,-0.0928l-0.42857,-0.71429l-0.08016,-0.26339l-0.14781,-0.23228l-0.28571,-0.85714l-0.02266,-0.29462l-0.05115,-0.14849l-1.17055,-0.66889l-0.3125,-1.25l0,-0.23739l-0.24814,-1.61289l-0.4176,-2.088l0.00249,-0.05224l-0.02044,-0.04814l-0.42817,-2.71175z" fill="#ffffff" stroke-width="0.5"/></g></g></svg>