<svg version="1.1" xmlns="http://www.w3.org/2000/svg" xmlns:xlink="http://www.w3.org/1999/xlink" width="41.11786" height="38.69916" viewBox="0,0,41.11786,38.69916"><g transform="translate(-219.44107,-160.65042)"><g data-paper-data="{&quot;isPaintingLayer&quot;:true}" fill-rule="nonzero" stroke="none" stroke-linecap="butt" stroke-linejoin="miter" stroke-miterlimit="10" stroke-dasharray="" stroke-dashoffset="0" style="mix-blend-mode: normal"><path d="M219.44107,199.34958v-38.69916h41.11786v38.69916z" fill="#000000" stroke-width="0"/><path d="M230.79167,180.00093c-0.00382,-0.25319 -0.15754,0.48255 -0.26393,0.71234c-0.42248,0.9125 -1.01502,1.88467 -1.66464,2.66768c-1.47394,1.77657 -3.26645,3.81391 -5.61607,1.46429c-2.02531,-2.02531 1.75804,-4.35338 2.41627,-5.58342c1.6238,-3.03441 2.02844,-11.88042 7.69971,-10.41634c4.13691,1.06797 2.36024,16.8985 2.42867,19.84429c0.05363,2.30857 1.05299,3.83203 2.05628,5.81384c0.09253,0.12063 0.17431,0.24994 0.24391,0.3865c0.19306,0.28403 0.37728,0.57599 0.25603,0.85638c0.01005,0.09106 0.01521,0.18359 0.01521,0.27733c0,1.38071 -1.11929,2.5 -2.5,2.5c-0.67763,0 -1.29229,-0.2696 -1.74258,-0.70739c-3.90966,-1.69349 -3.29745,-15.7358 -3.32885,-17.81548z" fill="#ffffff" stroke-width="0.5"/></g></g></svg>