<svg version="1.1" xmlns="http://www.w3.org/2000/svg" xmlns:xlink="http://www.w3.org/1999/xlink" width="41.11786" height="38.69916" viewBox="0,0,41.11786,38.69916"><g transform="translate(-219.44107,-160.65042)"><g data-paper-data="{&quot;isPaintingLayer&quot;:true}" fill-rule="nonzero" stroke="none" stroke-linecap="butt" stroke-linejoin="miter" stroke-miterlimit="10" stroke-dasharray="" stroke-dashoffset="0" style="mix-blend-mode: normal"><path d="M219.44107,199.34958v-38.69916h41.11786v38.69916z" fill="#000000" stroke-width="0"/><path d="M243.76678,166.76912l0.05692,-0.04879c0.05177,-0.07286 0.10734,-0.14283 0.16643,-0.20962l0.05014,-0.0788l0.02806,-0.00561c0.20744,-0.21388 0.45277,-0.3908 0.72517,-0.51993l0.23727,-0.11864l1.25779,-0.27951l0.01619,0.01079l0.0174,-0.0087l1.21341,0.43336l0.72764,0.48509l0.09598,0.04799l0.48634,0.08106l0.83028,0.36099l0.15627,0.00868l0.08097,0.09447l0.1141,0.04961l0.05425,0.14681l0.0721,0.08412l0.39906,0.19953l0.09187,0.07874l0.1151,0.03733l1.04213,0.65133l0.46519,0.23259l0.30513,0.26154l0.34461,0.20676l0.28571,0.28571l0.07243,0.12071l0.11198,0.08532l0.57143,0.71429l0.02906,0.06341l0.0531,0.04523l0.71429,1l0.07268,0.1845l0.12905,0.15056l0.57143,1.14286l0.03903,0.17566l0.09661,0.15181l0.14286,0.42857l0.01212,0.15751l0.06763,0.14277l0.13119,0.65595l0.12843,0.51371v0.06096l0.0261,0.05509l0.11233,0.56166l0.09364,0.28091l0.03082,0.40069l0.09747,0.38988v1.97974l0.01558,0.02336l-0.01558,0.07009v0.06966l-0.13932,0.55728l-0.12461,0.56075l-0.03115,0.06231l-0.01742,0.06966l-0.02438,0.01393l-0.35562,0.71124l-0.10281,0.11994l-0.05313,0.14877l-0.28571,0.42857l-0.3632,0.33018l-0.33018,0.3632l-0.42857,0.28571l-0.09473,0.03383l-0.04202,0.07354l-0.54632,0.13658l-0.53033,0.1894l-0.07576,-0.03788l-0.09758,0.0244l-3.10732,0l0.87509,0.87509l0.07243,0.12071l0.11198,0.08532l0.57143,0.71429l0.04609,0.10057l0.08186,0.07442l0.28571,0.42857l0.03383,0.09473l0.07354,0.04202l0.0975,0.39002l0.04554,0.05693l0.00082,0.0002l0.0017,0.00294l0.19054,0.23818l0.20535,0.44803l0.24629,0.4269l0.08379,0.29328l0.00141,0.00309l-0.00031,0.00078l0.20081,0.70285l0.01162,0.34851l0.08457,0.33829v2.42857l-0.07464,0.29857v0.30776l-0.14286,0.57143l-0.12956,0.24293l-0.05973,0.26876l-0.28571,0.57143l-0.10281,0.11994l-0.05313,0.14877l-0.28571,0.42857l-0.3632,0.33018l-0.33018,0.3632l-0.2226,0.1484l-0.39639,0.39639l-0.01218,0.00731l-0.01236,0.04394l-0.54787,0.2922l-0.53244,0.31946l-0.04404,-0.01201l-0.01254,0.00669l-0.57143,0.14286h-0.30776l-0.29857,0.07464h-1.83688l-0.02336,0.01558l-0.07009,-0.01558h-0.06966l-0.55728,-0.13932l-0.56075,-0.12461l-0.06231,-0.03115l-0.06966,-0.01742l-0.01393,-0.02438l-0.13982,-0.06991l-0.11994,-0.10281l-0.14877,-0.05313l-0.42857,-0.28571l-0.33018,-0.3632l-0.3632,-0.33018l-0.1484,-0.2226l-0.11067,-0.11067l-0.09258,-0.1543l-0.13965,-0.11347l-0.32197,-0.42929l-0.73151,-0.73151l-0.09258,-0.1543l-0.13965,-0.11347l-0.42857,-0.57143l-0.02757,-0.06547l-0.05256,-0.04778l-0.28571,-0.42857l-0.05313,-0.14877l-0.10281,-0.11994l-0.42857,-0.85714l-0.03903,-0.17566l-0.09661,-0.15181l-0.14286,-0.42857l-0.00752,-0.09774l-0.04613,-0.08649l-0.14286,-0.57143l0,-0.30776l-0.07464,-0.29857v-2.85714l0.09747,-0.38988l0.03082,-0.40069l0.01457,-0.0437v-0.02288l0.09747,-0.38988l0.03082,-0.40069l0.14286,-0.42857l0.17927,-0.28172l0.11231,-0.31447l0.2674,-0.4011l0.00213,-0.03826l0.49104,-0.42089l0.34135,-0.31031l0.06759,-0.06759l0.01988,-0.01193l0.04972,-0.0452l0.02297,0.00158l0.25203,-0.15122l0.30513,-0.26154l0.43222,-0.21611l0.29907,-0.19938l0.14877,-0.05313l0.05563,-0.04768l-0.07409,-0.2593l-0.42385,-1.41282l-0.00881,-0.18931l-0.0715,-0.17551l-0.12462,-0.87233l-0.11158,-0.44631l0,-0.1019l-0.04063,-0.09345l-0.09843,-0.59058l-0.18535,-0.46337l-0.06397,-0.46914l-0.11484,-0.45934v-3.28571l0.06039,-0.24157l-0.01184,-0.24872l0.14286,-0.71429l0.14295,-0.30178l0.07244,-0.32597l0.02013,-0.04026l0.0763,-0.30519l0.12956,-0.24293l0.05973,-0.26876l0.63483,-1.26966l0.08667,-0.26002l0.21914,-0.34437c0.01504,-0.03474 0.03084,-0.06907 0.04738,-0.10298l0.00887,-0.15963l0.14167,-0.12143zM246.93452,174.54235l0.10691,0.26727l0.03665,0.26874l0.10815,0.24874l0.12644,0.75866l0.11864,0.47457v0.13124l0.04952,0.12154l0.11637,0.81458l0.14749,0.49163l0.36921,-0.0923h0.30776l0.29857,-0.07464l2.78571,0l0,-0.80859l-0.01457,-0.0437l-0.01212,-0.15751l-0.06763,-0.14277l-0.13119,-0.65595l-0.12843,-0.51371l0,-0.06096l-0.0261,-0.05509l-0.11233,-0.56166l-0.03745,-0.11236l-0.40425,-0.8085l-0.56067,-0.78494l-0.37633,-0.47041l-0.17554,-0.08777l-0.09187,-0.07874l-0.1151,-0.03733l-1.04213,-0.65133l-0.7509,-0.37545l-0.15498,-0.13284l-0.12453,-0.00692l-0.0413,-0.04818l-0.12251,0.22971l-0.01852,0.08333l-0.06299,0.31495zM245.12399,185.25988l-0.21318,0.10659l-0.07287,0.04372l-0.00087,0.00349l-0.03082,0.40069l-0.01457,0.0437v2.14368l0.04493,0.17971l0.05631,0.16893l0.27951,0.55902l0.16089,0.24133l0.28034,0.37378l0.73151,0.73151l0.09258,0.1543l0.13965,0.11347l0.32197,0.42929l0.16008,0.16008l0.07495,0.12491l0.56229,0l0.18361,-0.11016l0.14277,-0.15704l0.05268,-0.10537l0.00165,-0.00662v-1.77067l-0.05157,-0.18051l-0.25774,-0.32218l-0.11008,-0.24016l-0.12525,-0.07157l-0.11094,-0.44375l-0.03701,-0.08075l-0.38737,-0.48421l-1.18781,-1.18781l-0.12811,-0.21352l-0.18425,-0.1675l-0.1484,-0.2226l-0.04759,-0.04759l-0.00498,-0.00069l-0.01114,-0.01542l-0.15521,-0.15521z" fill="#ffffff" stroke-width="0.5"/></g></g></svg>