<svg version="1.1" xmlns="http://www.w3.org/2000/svg" xmlns:xlink="http://www.w3.org/1999/xlink" width="41.11786" height="38.69916" viewBox="0,0,41.11786,38.69916"><g transform="translate(-219.44107,-160.65042)"><g data-paper-data="{&quot;isPaintingLayer&quot;:true}" fill-rule="nonzero" stroke="none" stroke-linecap="butt" stroke-linejoin="miter" stroke-miterlimit="10" stroke-dasharray="" stroke-dashoffset="0" style="mix-blend-mode: normal"><path d="M219.44107,199.34958v-38.69916h41.11786v38.69916z" fill="#000000" stroke-width="0"/><path d="M243.3631,196.59524c0,-0.74027 0.32175,-1.40539 0.83303,-1.86315l0.01224,-0.03673l0.06823,-0.03232c0.32281,-0.26536 0.71328,-0.45141 1.14163,-0.52834l0.34058,-0.06812l1.06706,-0.53353l0.49053,-0.2803l0.11814,-0.15752l0.28039,-0.22782l0.05497,-0.24736l0.02013,-0.04026l0.06116,-0.24466l-0.01096,-0.2302l0.14286,-0.71429l0.0261,-0.05509l0,-0.06096l0.12843,-0.51371l0.10315,-0.51575l0.12235,-1.46818v-1.32458l0.03414,-0.13657l-0.01885,-0.13951l0.14286,-1.28571l0.01396,-0.03759l-0.00413,-0.03989l0.10554,-0.73878l-0.11909,-0.02977l-0.20829,0.01666l-0.85714,-0.14286l-0.03795,-0.0165l-0.04134,0.00197l-1.38904,-0.27781l-0.81738,-0.13623l-0.09345,-0.04063h-0.1019l-0.51371,-0.12843l-0.63445,-0.12689l-1.54985,-0.28179l-0.32384,-0.1465l-0.34698,-0.07711l-0.04026,-0.02013l-0.30519,-0.0763l-0.17861,-0.09526l-0.19985,-0.03223l-1,-0.42857l-0.01365,-0.01038l-0.01689,-0.00296l-1.17543,-0.52241l-0.5879,-0.19597l-0.02709,0.00739l-0.06157,-0.03694l-0.06609,-0.02203l-0.48463,-0.3084l-0.49257,-0.29554l-0.04926,-0.04926l-0.06058,-0.03855l-0.00551,-0.02754l-0.45609,-0.45609l-0.18454,-0.30757l-0.00957,-0.00269l-0.02765,-0.05184l-0.24655,-0.28764l-0.14286,-0.28571l-0.02935,-0.13206l-0.02241,-0.03735l0.00777,-0.0285l-0.01575,-0.07085l-0.12956,-0.24293l-0.14286,-0.57143v-0.1019l-0.04063,-0.09345l-0.14286,-0.85714l0.01666,-0.20829l-0.05068,-0.20271v-2.83688l-0.01558,-0.02336l0.01558,-0.07009v-0.06966l0.13932,-0.55728l0.00354,-0.01592v-0.14109l0.09747,-0.38988l0.03082,-0.40069l0.14286,-0.42857l0.09661,-0.15181l0.03903,-0.17566l0.20626,-0.41252l0.22953,-0.68859l0.05695,-0.0895l0.01689,-0.10473l0.38761,-0.90442l0.25283,-0.75849l0.04036,-0.06342l0.01016,-0.07449l0.28571,-0.71429l0.06211,-0.086l0.02301,-0.10356l0.12809,-0.25618l-0.00264,-0.03823l0.43504,-0.47854l0.42089,-0.49104l0.03826,-0.00213l0.4011,-0.2674l0.09473,-0.03383l0.04202,-0.07354l0.54632,-0.13658l0.53033,-0.1894l0.07576,0.03788l0.09758,-0.0244h0.85714l0.38988,0.09747l0.40069,0.03082l0.42857,0.14286l0.15181,0.09661l0.17566,0.03903l0.1268,0.0634l0.26002,0.08667l0.23228,0.14781l0.26339,0.08016l0.71429,0.42857l0.0928,0.0928l0.12096,0.05093l0.51592,0.38694l0.24133,0.16089l0.43222,0.21611l0.23367,0.20029l0.27527,0.13764l0.76633,0.65685l1.72473,0.86236l0.30513,0.26154l0.34461,0.20676l0.71429,0.71429l0.09258,0.1543l0.13965,0.11347l0.39014,0.52018l0.67328,0.80793l0.02852,0.05909l0.05092,0.04137l0.42857,0.57143l0.13838,0.32864l0.20245,0.29355l0.40833,1.08887l0.40586,0.947l0.03223,0.19985l0.09526,0.17861l0.42857,1.71429v0.19545l0.06438,0.18455l0.14286,1.57143l-0.01777,0.11421l0.02803,0.11213v4.42857l-0.04364,0.17457l0.01852,0.17899l-0.13733,0.96134l-0.12325,1.10928v1.29011l-0.02573,0.10292l0.01709,0.1047l-0.14286,1.71429l-0.04682,0.13754l0.00691,0.14513l-0.14286,0.71429l-0.0261,0.05509v0.06096l-0.12843,0.51371l-0.08264,0.41321v0.03817l-0.03817,0.15266l-0.01038,0.05191l-0.0055,0.0116l-0.0206,0.08239l0,0.30776l-0.14286,0.57143l-0.12956,0.24293l-0.05973,0.26876l-0.02857,0.05714l-0.11429,0.51429l-0.03115,0.06231l-0.01742,0.06966l-0.02438,0.01393l-0.05514,0.11029l0.00264,0.03823l-0.43504,0.47854l-0.42089,0.49104l-0.03826,0.00213l-0.04479,0.02986l-0.00102,0.00137v0.00659l-0.01756,0.01683l-0.15305,0.20406l-0.39355,0.31976l-0.3661,0.35085l-0.22147,0.12655l-0.01888,0.01534l-0.00653,-0.00082l-0.75312,0.43035l-0.06838,0.01923l-0.05393,0.04623l-1.42857,0.71429l-0.32597,0.07244l-0.30178,0.14295l-0.66367,0.13273c-0.17418,0.03842 -0.35518,0.05867 -0.54091,0.05867c-0.25166,0 -0.49463,-0.03718 -0.72373,-0.10636l-0.07299,-0.00348l-0.02456,-0.02819c-0.97729,-0.33977 -1.67872,-1.26896 -1.67872,-2.36197zM248.53372,179.58549l-0.33311,-1.33244l-0.34966,-0.81588l-0.00941,-0.05834l-0.03355,-0.04865l-0.30275,-0.80734l-0.17513,-0.23351l-0.67328,-0.80793l-0.02852,-0.05909l-0.05092,-0.04137l-0.32197,-0.42929l-0.30179,-0.30179l-1.63714,-0.81857l-0.23367,-0.20029l-0.27527,-0.13764l-0.76633,-0.65685l-0.29616,-0.14808l-0.11994,-0.10281l-0.14877,-0.05313l-0.42857,-0.28571l-0.04778,-0.05256l-0.06547,-0.02757l-0.46826,-0.35119l-0.07414,-0.04449l-0.01446,0.04339l-0.05695,0.0895l-0.01689,0.10473l-0.38761,0.90442l-0.25283,0.75849l-0.09661,0.15181l-0.03903,0.17566l-0.17401,0.34802l-0.12995,0.5198l-0.00354,0.01592l0,2.50561l0.06307,0.37841l0.08464,0.02821l0.1037,0.06599l0.12108,0.02119l1.27048,0.56466l0.80056,0.3431l0.37709,0.09427l0.24293,0.12956l0.00319,0.00071l1.4519,0.26398l0.02055,0.0093l0.02253,-0.00107l0.71429,0.14286l0.05509,0.0261h0.06096l0.47457,0.11864l0.75866,0.12644l0.03795,0.0165l0.04134,-0.00197l1.38904,0.27781l0.26086,0.04348z" fill="#ffffff" stroke-width="0.5"/></g></g></svg>